<svg xmlns="http://www.w3.org/2000/svg" viewBox="0 0 400 200" preserveAspectRatio="xMidYMid slice">
  <rect width="400" height="200" fill="#F5DDD0"/>
  <ellipse cx="200" cy="190" rx="200" ry="20" fill="#E8A88A" opacity="0.5"/>
  <g transform="translate(290 110)">
    <ellipse cx="0" cy="40" rx="60" ry="8" fill="#2D1810" opacity="0.1"/>
    <ellipse cx="0" cy="5" rx="50" ry="40" fill="#D97757"/>
    <circle cx="-25" cy="-25" r="22" fill="#D97757"/>
    <ellipse cx="-25" cy="-22" rx="6" ry="7" fill="#FAF6EF"/>
    <ellipse cx="-15" cy="-22" rx="6" ry="7" fill="#FAF6EF"/>
    <circle cx="-25" cy="-21" r="3" fill="#2D1810"/>
    <circle cx="-15" cy="-21" r="3" fill="#2D1810"/>
    <polygon points="-40,-15 -55,-12 -40,-8" fill="#C89B5C"/>
    <ellipse cx="20" cy="-5" rx="20" ry="14" fill="#B8593B" opacity="0.55"/>
  </g>
  <g transform="translate(80 130)">
    <circle cx="0" cy="0" r="22" fill="#C89B5C" stroke="#8C6A3A" stroke-width="2"/>
    <text x="0" y="6" text-anchor="middle" font-family="Georgia,serif" font-size="18" font-weight="bold" fill="#2D1810">¢</text>
  </g>
  <g transform="translate(150 160)">
    <circle cx="0" cy="0" r="18" fill="#C89B5C" stroke="#8C6A3A" stroke-width="2"/>
    <text x="0" y="5" text-anchor="middle" font-family="Georgia,serif" font-size="14" font-weight="bold" fill="#2D1810">$</text>
  </g>
  <g transform="translate(200 130)">
    <circle cx="0" cy="0" r="16" fill="#C89B5C" stroke="#8C6A3A" stroke-width="2"/>
    <text x="0" y="5" text-anchor="middle" font-family="Georgia,serif" font-size="13" font-weight="bold" fill="#2D1810">$</text>
  </g>
</svg>
