<svg xmlns="http://www.w3.org/2000/svg" viewBox="0 0 400 200" preserveAspectRatio="xMidYMid slice">
  <rect width="400" height="200" fill="#E3D5BF"/>
  <ellipse cx="60" cy="180" rx="80" ry="20" fill="#D4C5B2" opacity="0.7"/>
  <ellipse cx="340" cy="180" rx="80" ry="20" fill="#D4C5B2" opacity="0.7"/>
  <g transform="translate(290 100)">
    <ellipse cx="0" cy="40" rx="55" ry="10" fill="#2D1810" opacity="0.12"/>
    <ellipse cx="0" cy="5" rx="55" ry="42" fill="#7A9B6E"/>
    <circle cx="-22" cy="-25" r="16" fill="#7A9B6E"/>
    <circle cx="22" cy="-25" r="16" fill="#7A9B6E"/>
    <circle cx="-22" cy="-25" r="11" fill="#FAF6EF"/>
    <circle cx="22" cy="-25" r="11" fill="#FAF6EF"/>
    <circle cx="-22" cy="-23" r="6" fill="#2D1810"/>
    <circle cx="22" cy="-23" r="6" fill="#2D1810"/>
    <circle cx="-20" cy="-25" r="2" fill="#FAF6EF"/>
    <circle cx="24" cy="-25" r="2" fill="#FAF6EF"/>
    <ellipse cx="-20" cy="20" rx="6" ry="3" fill="#D97757" opacity="0.6"/>
    <ellipse cx="20" cy="20" rx="6" ry="3" fill="#D97757" opacity="0.6"/>
    <path d="M -15 15 Q 0 25 15 15" stroke="#2D1810" stroke-width="3" fill="none" stroke-linecap="round"/>
    <rect x="-25" y="35" width="50" height="20" rx="4" fill="#5C7A52"/>
    <rect x="-22" y="38" width="44" height="14" rx="2" fill="#FAF6EF"/>
    <text x="0" y="49" text-anchor="middle" font-family="sans-serif" font-size="10" font-weight="bold" fill="#5C7A52">Rp</text>
  </g>
</svg>
