<svg xmlns="http://www.w3.org/2000/svg" viewBox="0 0 400 200" preserveAspectRatio="xMidYMid slice">
  <defs>
    <linearGradient id="nightGrad" x1="0" y1="0" x2="0" y2="1">
      <stop offset="0%" stop-color="#1F1410"/>
      <stop offset="100%" stop-color="#2D1810"/>
    </linearGradient>
  </defs>
  <rect width="400" height="200" fill="url(#nightGrad)"/>
  <circle cx="40" cy="30" r="1.5" fill="#FAF6EF"/>
  <circle cx="80" cy="60" r="1" fill="#FAF6EF"/>
  <circle cx="120" cy="20" r="2" fill="#FAF6EF"/>
  <circle cx="180" cy="50" r="1.5" fill="#FAF6EF"/>
  <circle cx="220" cy="30" r="1" fill="#FAF6EF"/>
  <circle cx="260" cy="70" r="1.5" fill="#FAF6EF"/>
  <circle cx="60" cy="100" r="1" fill="#FAF6EF"/>
  <circle cx="160" cy="90" r="1.5" fill="#FAF6EF"/>
  <circle cx="240" cy="120" r="1" fill="#FAF6EF"/>
  <circle cx="380" cy="40" r="2" fill="#FAF6EF"/>
  <circle cx="100" cy="140" r="1" fill="#FAF6EF"/>
  <circle cx="20" cy="160" r="1.5" fill="#FAF6EF"/>
  <g transform="translate(310 70)">
    <circle cx="0" cy="0" r="40" fill="#C89B5C"/>
    <circle cx="-12" cy="-8" r="40" fill="#2D1810"/>
    <ellipse cx="-22" cy="-12" rx="4" ry="6" fill="#FAF6EF"/>
    <ellipse cx="-12" cy="-12" rx="4" ry="6" fill="#FAF6EF"/>
    <circle cx="-22" cy="-11" r="2" fill="#2D1810"/>
    <circle cx="-12" cy="-11" r="2" fill="#2D1810"/>
    <ellipse cx="-25" cy="-2" rx="3" ry="2" fill="#D97757" opacity="0.6"/>
    <ellipse cx="-9" cy="-2" rx="3" ry="2" fill="#D97757" opacity="0.6"/>
  </g>
  <g transform="translate(60 150)" opacity="0.85">
    <circle cx="0" cy="0" r="14" fill="#C89B5C" stroke="#8C6A3A" stroke-width="2"/>
    <text x="0" y="4" text-anchor="middle" font-family="Georgia,serif" font-size="11" font-weight="bold" fill="#2D1810">P</text>
  </g>
</svg>
