<svg xmlns="http://www.w3.org/2000/svg" viewBox="0 0 400 200" preserveAspectRatio="xMidYMid slice">
  <defs>
    <linearGradient id="pigGrad" x1="0" y1="0" x2="0" y2="1">
      <stop offset="0%" stop-color="#F5DDD0"/>
      <stop offset="100%" stop-color="#E8A88A"/>
    </linearGradient>
  </defs>
  <rect width="400" height="200" fill="url(#pigGrad)"/>
  <g transform="translate(300 110)">
    <ellipse cx="0" cy="35" rx="60" ry="10" fill="#2D1810" opacity="0.12"/>
    <ellipse cx="0" cy="0" rx="55" ry="40" fill="#D97757"/>
    <circle cx="-20" cy="-12" r="4" fill="#2D1810"/>
    <circle cx="20" cy="-12" r="4" fill="#2D1810"/>
    <ellipse cx="0" cy="5" rx="14" ry="10" fill="#B8593B"/>
    <circle cx="-5" cy="5" r="2.5" fill="#2D1810"/>
    <circle cx="5" cy="5" r="2.5" fill="#2D1810"/>
    <rect x="-8" y="-25" width="16" height="3" rx="1" fill="#2D1810"/>
    <ellipse cx="-25" cy="-22" rx="8" ry="6" fill="#D97757"/>
    <ellipse cx="25" cy="-22" rx="8" ry="6" fill="#D97757"/>
    <rect x="-25" y="25" width="6" height="10" rx="2" fill="#B8593B"/>
    <rect x="19" y="25" width="6" height="10" rx="2" fill="#B8593B"/>
  </g>
  <g transform="translate(90 140)">
    <circle cx="0" cy="0" r="20" fill="#C89B5C" stroke="#8C6A3A" stroke-width="2"/>
    <text x="0" y="5" text-anchor="middle" font-family="Georgia,serif" font-size="16" font-weight="bold" fill="#2D1810">P</text>
  </g>
</svg>
