<svg xmlns="http://www.w3.org/2000/svg" viewBox="0 0 400 200" preserveAspectRatio="xMidYMid slice">
  <rect width="400" height="200" fill="#EFE6D8"/>
  <circle cx="50" cy="40" r="20" fill="#E3D5BF" opacity="0.6"/>
  <circle cx="350" cy="170" r="30" fill="#E3D5BF" opacity="0.6"/>
  <g transform="translate(290 100)">
    <ellipse cx="0" cy="40" rx="55" ry="14" fill="#2D1810" opacity="0.1"/>
    <ellipse cx="0" cy="0" rx="50" ry="42" fill="#D97757"/>
    <polygon points="-40,-30 -25,-50 -15,-30" fill="#B8593B"/>
    <polygon points="40,-30 25,-50 15,-30" fill="#B8593B"/>
    <ellipse cx="-15" cy="-5" rx="6" ry="8" fill="#FAF6EF"/>
    <ellipse cx="15" cy="-5" rx="6" ry="8" fill="#FAF6EF"/>
    <circle cx="-15" cy="-3" r="3" fill="#2D1810"/>
    <circle cx="15" cy="-3" r="3" fill="#2D1810"/>
    <ellipse cx="0" cy="15" rx="8" ry="6" fill="#FAF6EF"/>
    <ellipse cx="0" cy="12" rx="3" ry="2" fill="#2D1810"/>
    <path d="M -8 22 Q 0 30 8 22" stroke="#2D1810" stroke-width="2" fill="none"/>
  </g>
  <g transform="translate(80 140)">
    <circle cx="0" cy="0" r="22" fill="#C89B5C" stroke="#8C6A3A" stroke-width="2"/>
    <text x="0" y="6" text-anchor="middle" font-family="Georgia,serif" font-size="18" font-weight="bold" fill="#2D1810">¥</text>
  </g>
  <g transform="translate(140 165)">
    <circle cx="0" cy="0" r="18" fill="#C89B5C" stroke="#8C6A3A" stroke-width="2"/>
    <text x="0" y="5" text-anchor="middle" font-family="Georgia,serif" font-size="14" font-weight="bold" fill="#2D1810">$</text>
  </g>
</svg>
